.
 
http://www.scenetime.com    -   SceneTime [ We been having it ] !!!


How come you press harder on a remote control when you know the battery is dead? so you better seed to get speed ;)

        Seed back for speed


...................................NFO:.................................................*******************************************************************************
          Harry Potter And The Deathly Hallows Part 2 TS Xvid-SiNiSTER
*******************************************************************************
[IMG]http://i1227.photobucket.com/albums/ee427/boobyblue/SiNiSTER.gif[/IMG]
-------------------------------------------------------------------------------
                              General Information
-------------------------------------------------------------------------------
[IMG]http://i1227.photobucket.com/albums/ee427/boobyblue/MV5BMTY2MTk3MDQ1N15BMl5BanBnXkFtZTcwMzI4NzA2NQ_V1_SY317_.jpg[/IMG]
Format                           : AVI
Format/Info                      : Audio Video Interleave
Format profile                   : OpenDML
File size                        : 2.56 GiB
Duration                         : 1h 56mn
Overall bit rate                 : 3 136 Kbps
Writing library                  : VirtualDub build 32817/release

Video
ID                               : 0
Format                           : MPEG-4 Visual
Format settings, BVOP            : Yes
Format settings, QPel            : No
Format settings, GMC             : No warppoints
Format settings, Matrix          : Default (H.263)
Codec ID                         : DX50
Codec ID/Hint                    : DivX 5
Duration                         : 1h 56mn
Bit rate                         : 2 996 Kbps
Width                            : 720 pixels
Height                           : 304 pixels
Display aspect ratio             : 2.35:1
Frame rate                       : 25.000 fps
Color space                      : YUV
Chroma subsampling               : 4:2:0
Bit depth                        : 8 bits
Scan type                        : Progressive
Compression mode                 : Lossy
Bits/(Pixel*Frame)               : 0.548
Stream size                      : 2.45 GiB (96%)
Writing library                  : DivX 6.8.5 (UTC 2009-08-20)

Audio
ID                               : 1
Format                           : MPEG Audio
Format version                   : Version 1
Format profile                   : Layer 3
Codec ID                         : 55
Codec ID/Hint                    : MP3
Duration                         : 1h 56mn
Bit rate mode                    : Constant
Bit rate                         : 128 Kbps
Channel(s)                       : 2 channels
Sampling rate                    : 44.1 KHz
Compression mode                 : Lossy
Stream size                      : 107 MiB (4%)
Alignment                        : Split accross interleaves
Interleave, duration             : 40 ms (1.00 video frame)
Interleave, preload duration     : 500 ms





Video Source: Garri Potter i dari smerti.2chast.2011.TS_Proper
Audio Source: IMAGINE
Greets:
DarkScene,HDScene,Noir,CrEwSaDe,blackjesus,ViSiON,HDLiTE,EP1C,IMAGiNE,FLAWL3SS,Rx,ELEKTRI4KA,
CiNEDUB,,ETRG,BDK,SAFCuk009..... and everybody else we respect.. u 
know who u are
-------------------------------------------------------------------------------
                               Post Information
-------------------------------------------------------------------------------
Encoded by...........: BOOBYBLUE
 
Have sumthing to offer..looking for suppliers... cammers,cams,screeners, audio
supplier.. and any pre retail DVD/BR any RC...if u can provide any email us at
sinister@hushmail.me
-------------------------------------------------------------------------------
                                 Release Notes
-------------------------------------------------------------------------------
Well here we are with a badass encode! Say what you want quite frankly this is the best one ive saw, unless someone gets a better source. I used the russian source and adjusted a color and a little rgb, now i took all the grainyness out if not all 99.99 percent with a litle help from... If i told ya id have to kill ya! lol:). Now as far anything else just some sharpness and a little contrast and here we have it besides the occasional flicker but it aint no biggie all! From all of you watch and you be the judge cause in my opinion the best just got a bit better. And respect to all of you who e


-------------------------------------------------------------------------------
                                 ScreenShots
-------------------------------------------------------------------------------
[IMG]http://i1227.photobucket.com/albums/ee427/boobyblue/1-10.jpg[/IMG]
[IMG]http://i1227.photobucket.com/albums/ee427/boobyblue/2-10.jpg[/IMG]
[IMG]http://i1227.photobucket.com/albums/ee427/boobyblue/3-8.jpg[/IMG]
[IMG]http://i1227.photobucket.com/albums/ee427/boobyblue/4-8.jpg[/IMG]

-------------------------------------------------------------------------------
[IMG]http://i1227.photobucket.com/albums/ee427/boobyblue/SiNiSTER.gif[/IMG]